<svg xmlns="http://www.w3.org/2000/svg" id="outputsvg" width="512" class="img-fluid" style="transform:matrix(1,0,0,1,0,0);transform-origin:50% 50%;cursor:move;transition:transform 200ms ease-in-out" height="512" viewBox="0 0 5120 5120"><g id="l5CmqEJ9Pzcpoa7nSiErbuz" fill="#9A4E1C" style="transform:none"><g style="transform:none"><path id="p8ocOlACp" d="M525 5113 c-69 -9 -195 -55 -251 -91 -82 -54 -163 -145 -206 -233 -68 -139 -68 -143 -68 -1070 0 -822 0 -829 20 -829 15 0 20 7 20 24 0 27 48 168 60 176 4 3 15 19 24 37 43 85 183 186 315 227 66 21 75 21 2114 24 1366 1 2047 -1 2047 -8 0 -5 21 -10 48 -10 26 0 61 -8 79 -18 17 -9 49 -27 71 -39 43 -24 172 -146 172 -163 0 -5 5 -10 10 -10 6 0 10 -7 10 -15 0 -8 4 -15 10 -15 14 0 35 -47 50 -112 8 -35 18 -58 27 -58 7 0 13 -4 13 -10 0 -5 7 -10 15 -10 14 0 15 91 13 858 l-4 857 -27 81 c-70 210 -239 357 -456 398 -74 14 -297 16 -2080 15 -1098 -1 -2009 -4 -2026 -6z"/><path id="p27g0Pw1t" d="M399 3135 c-151 -37 -301 -153 -364 -280 l-30 -60 0 -580 0 -580 27 -81 c50 -147 160 -285 274 -342 130 -66 123 -65 646 -70 l476 -4 4 -336 c4 -313 6 -342 26 -403 51 -152 174 -285 320 -344 134 -54 169 -56 818 -53 593 4 600 4 677 27 184 55 331 195 389 370 20 61 22 90 26 403 l4 336 476 4 c464 4 479 5 547 27 39 13 96 39 128 58 75 45 171 158 213 248 61 134 64 169 64 759 l-1 531 -28 63 c-28 63 -126 190 -147 191 -7 1 -14 8 -18 16 -3 8 -12 15 -21 15 -8 0 -15 4 -15 8 0 10 -83 48 -125 57 -16 4 -33 12 -37 18 -12 19 -4253 20 -4329 2z m2522 -338 c98 -49 169 -149 169 -237 0 -95 -89 -209 -188 -241 -55 -18 -557 -25 -644 -8 -114 21 -214 119 -225 222 -14 124 91 253 224 277 27 5 179 8 338 7 258 -2 294 -4 326 -20z m499 -1800 c0 -79 -5 -170 -11 -202 -17 -95 -73 -165 -164 -207 l-50 -23 -635 0 c-500 0 -643 3 -672 13 -56 20 -132 93 -159 154 -20 47 -23 72 -27 231 l-4 177 861 0 861 0 0 -143z"/></g></g><g id="l2b82E7nkegZF3PUNcFfhTV" fill="#662113" style="transform:none"><g style="transform:none"><path id="p15InU3nSU" d="M470 3401 c-8 -6 -18 -7 -22 -5 -4 3 -14 2 -20 -3 -7 -4 -20 -8 -28 -10 -8 -1 -52 -21 -98 -44 -87 -44 -178 -124 -208 -181 -9 -18 -20 -35 -24 -38 -4 -3 -20 -39 -35 -80 -26 -69 -28 -88 -31 -240 -2 -95 0 -150 5 -130 14 63 63 174 98 222 75 103 196 182 327 213 52 13 354 14 2141 11 1144 -2 2090 -5 2103 -7 12 -2 22 -7 22 -11 0 -3 15 -9 33 -13 45 -8 127 -46 121 -56 -2 -4 6 -9 18 -11 13 -2 22 -9 21 -16 -2 -6 4 -12 12 -12 25 0 135 -129 138 -160 1 -11 5 -20 10 -20 4 0 5 -4 2 -10 -3 -5 -1 -10 5 -10 6 0 8 -4 5 -10 -3 -5 -1 -10 5 -10 7 0 10 -7 6 -15 -3 -8 -1 -15 5 -15 6 0 9 -7 5 -15 -3 -8 -1 -15 5 -15 6 0 9 -7 5 -15 -3 -9 0 -15 10 -15 13 0 15 19 12 137 -2 91 -7 138 -14 140 -7 2 -10 13 -7 23 3 11 0 20 -6 20 -5 0 -8 7 -5 15 4 8 1 15 -6 15 -6 0 -8 4 -5 10 7 12 -32 90 -46 90 -6 0 -8 4 -4 9 3 6 -3 14 -12 20 -10 6 -14 11 -9 11 15 0 -117 124 -169 157 -76 50 -116 66 -162 66 -24 0 -43 4 -43 9 0 11 -4141 10 -4160 -1z"/></g></g><g id="l76BjGeBRp5KyfyVbUzHTOV" fill="#CCD6DD" style="transform:none"><g style="transform:none"><path id="pBcqUKs4Z" d="M2227 2840 c-98 -17 -182 -90 -214 -185 -56 -170 39 -338 212 -374 79 -17 653 -10 707 8 61 20 133 84 163 145 56 114 27 260 -67 340 -83 72 -78 71 -433 73 -176 1 -341 -2 -368 -7z"/></g></g></svg>